<svg xmlns="http://www.w3.org/2000/svg" xmlns:xlink="http://www.w3.org/1999/xlink" viewBox="0 0 70 55.5"><defs><style>.cls-1{fill:url(#Безымянный_градиент_22);}.cls-2{fill:url(#Безымянный_градиент_12);}.cls-3{fill:url(#Безымянный_градиент_23);}.cls-4{fill:#fff;}</style><linearGradient id="Безымянный_градиент_22" x1="35" y1="7.5" x2="35" gradientUnits="userSpaceOnUse"><stop offset="0" stop-color="#de8d02"/><stop offset="1" stop-color="#feaf17"/></linearGradient><linearGradient id="Безымянный_градиент_12" x1="35" y1="55.5" x2="35" gradientUnits="userSpaceOnUse"><stop offset="0" stop-color="#f35001"/><stop offset="1" stop-color="#feaf17"/></linearGradient><linearGradient id="Безымянный_градиент_23" x1="35" y1="19.88" x2="35" gradientUnits="userSpaceOnUse"><stop offset="0" stop-color="#fa9c39"/><stop offset="1" stop-color="#feaf17"/></linearGradient></defs><title>Ресурс 10</title><g id="Слой_2" data-name="Слой 2"><g id="Слой_1-2" data-name="Слой 1"><polygon class="cls-1" points="66.67 0 3.33 0 0 7.5 70 7.5 66.67 0"/><polygon class="cls-2" points="3.33 0 66.67 0 66.67 28.25 35 55.5 3.33 28.41 3.33 0"/><path class="cls-3" d="M3.33,0H66.67V12.88s-10.87,7-31.62,7-31.71-7-31.71-7Z"/><path class="cls-4" d="M21.86,14.07a5.82,5.82,0,0,1,5.95-5.81,6.23,6.23,0,0,1,2.89.67,4.53,4.53,0,0,1,2,2,6.16,6.16,0,0,1,.69,2.86,6.47,6.47,0,0,1-.73,2.93A5.3,5.3,0,0,1,30.48,19a6,6,0,0,1-3,.81,5.37,5.37,0,0,1-4-1.63A5.6,5.6,0,0,1,21.86,14.07Zm2.7.14a6.12,6.12,0,0,0,.83,3.61,2.59,2.59,0,0,0,2.18,1.11,2.56,2.56,0,0,0,2.32-1.4,7.5,7.5,0,0,0,.82-3.79,6.83,6.83,0,0,0-.72-3.4,2.39,2.39,0,0,0-2.22-1.25,2.65,2.65,0,0,0-2.37,1.36A7.11,7.11,0,0,0,24.56,14.2Zm18-6.51L29.09,33.86l-.21.1H27.65l-.1-.17L41,7.62l.17-.12h1.26ZM36.62,27.48a5.81,5.81,0,0,1,5.93-5.81,6.27,6.27,0,0,1,2.91.67,4.48,4.48,0,0,1,2,2,6.22,6.22,0,0,1,.68,2.86,6.55,6.55,0,0,1-.71,2.89,5.33,5.33,0,0,1-2.13,2.29,6,6,0,0,1-3.08.84,5.34,5.34,0,0,1-4-1.64A5.64,5.64,0,0,1,36.62,27.48Zm2.7.14a8.88,8.88,0,0,0,.31,2.5,3.22,3.22,0,0,0,1,1.63,2.65,2.65,0,0,0,4-.79,7.41,7.41,0,0,0,.83-3.82,7.07,7.07,0,0,0-.69-3.37,2.37,2.37,0,0,0-2.25-1.27,2.71,2.71,0,0,0-2.32,1.29A6.78,6.78,0,0,0,39.32,27.62Z"/></g></g></svg>